
        <svg xmlns="http://www.w3.org/2000/svg" xmlns:xlink="http://www.w3.org/1999/xlink" version="1.1" width="3162.1621621621625" height="733.2776059737956" viewBox="0 0 3162.1621621621625 733.2776059737956">
			
			<g transform="scale(8.108108108108109) translate(10, 10)">
				<defs id="SvgjsDefs1571"><linearGradient id="SvgjsLinearGradient1576"><stop id="SvgjsStop1577" stop-color="#2d388a" offset="0"/><stop id="SvgjsStop1578" stop-color="#00aeef" offset="1"/></linearGradient></defs><g id="SvgjsG1572" featureKey="symbolFeature-0" transform="matrix(1.0672358069859358,0,0,1.0672358069859358,-3.4151523432051616,-18.249732706577653)" fill="#fff"><g xmlns="http://www.w3.org/2000/svg"><path d="M84.4,17.1c-6.8,0-12.3,5.5-12.3,12.3c0,3.6,1.5,6.8,4,9l-9.5,12c-0.8-0.2-1.6-0.2-2.5-0.2c-1.3,0-2.6,0.2-3.8,0.6L48.6,43   c0.8-1.6,1.3-3.5,1.3-5.4c0-6.8-5.5-12.3-12.3-12.3s-12.3,5.5-12.3,12.3c0,3.3,1.3,6.3,3.4,8.5l-9.3,13c-1.2-0.4-2.5-0.6-3.9-0.6   c-6.8,0-12.3,5.5-12.3,12.3c0,6.8,5.5,12.3,12.3,12.3s12.3-5.5,12.3-12.3c0-2.5-0.8-4.8-2-6.8L36,49.7c0.5,0.1,1.1,0.1,1.6,0.1   c1.8,0,3.6-0.4,5.1-1.1L53.8,56C52.7,57.8,52,60,52,62.4c0,6.8,5.5,12.3,12.3,12.3c6.8,0,12.3-5.5,12.3-12.3c0-3-1.1-5.7-2.9-7.9   l10.2-13c0.2,0,0.4,0,0.7,0c6.8,0,12.3-5.5,12.3-12.3C96.7,22.6,91.2,17.1,84.4,17.1z M37.6,33.3c2.4,0,4.3,1.9,4.3,4.3   c0,2.4-1.9,4.3-4.3,4.3s-4.3-1.9-4.3-4.3C33.3,35.2,35.2,33.3,37.6,33.3z M15.6,74.9c-2.4,0-4.3-1.9-4.3-4.3c0-2.4,1.9-4.3,4.3-4.3   c0.8,0,1.5,0.2,2.1,0.6c0.2,0.2,0.4,0.3,0.6,0.5c0.1,0.1,0.2,0.2,0.4,0.2c0.7,0.8,1.2,1.8,1.2,3C19.8,73,17.9,74.9,15.6,74.9z    M64.2,66.7c-2.4,0-4.3-1.9-4.3-4.3c0-2.4,1.9-4.3,4.3-4.3c2.4,0,4.3,1.9,4.3,4.3C68.5,64.8,66.6,66.7,64.2,66.7z M84.4,33.6   c-2.4,0-4.3-1.9-4.3-4.3c0-2.4,1.9-4.3,4.3-4.3c2.4,0,4.3,1.9,4.3,4.3C88.7,31.7,86.8,33.6,84.4,33.6z"/></g></g><g id="SvgjsG1573" featureKey="vMvB0T-0" transform="matrix(3.719131143410369,0,0,3.719131143410369,117.32222547033933,-13.46355019090511)" fill="#fff"><path d="M6.8 12.24 l3.14 -0.02 q2.12 0 2.12 2 l0 5.26 q-2.58 0.82 -5.42 0.82 q-1.44 0 -2.55 -0.48 t-1.86 -1.38 t-1.13 -2.21 t-0.38 -2.97 q0 -1.82 0.53 -3.17 t1.42 -2.25 t2.05 -1.35 t2.42 -0.45 q2.6 0 4.88 1.44 q-0.02 0.32 -0.15 0.65 t-0.32 0.64 t-0.44 0.56 t-0.51 0.43 q-1.66 -1.08 -3.36 -1.08 q-3.26 0 -3.26 4.56 q0 4.54 3.34 4.54 q0.46 0 0.89 -0.04 t0.85 -0.12 l0 -1.34 q0 -0.46 0.01 -0.8 t0.03 -0.58 l-1 0 q-0.86 0 -1.19 -0.33 t-0.33 -1.03 q0 -0.6 0.22 -1.3 z M17.740000000000002 15.96 l-0.02 1.44 l0 0.02 q0.92 -0.04 1.48 -0.04 l4.64 0 q0 0.74 -0.06 1.14 q-0.24 1.54 -2.04 1.54 l-5.32 0 q-0.86 0 -1.35 -0.5 t-0.49 -1.36 l0 -11.72 l0.14 -0.14 l8.62 0 q0.12 0.58 0.12 1.26 t-0.28 1.42 l-5.46 0 l0.02 1.44 l0 1.4 q0.52 -0.02 1.36 -0.02 l3.06 0 q0.18 0.56 0.18 1.28 t-0.18 1.32 l-4.42 0 l0 1.52 z M26.099999999999998 20 l0 -13.66 q0.62 -0.12 1.6 -0.12 t1.62 0.12 l0 13.66 q-0.64 0.12 -1.62 0.12 t-1.6 -0.12 z M43.16 6.199999999999999 l0.14 0.14 l0 13.6 q-0.8 0.18 -1.89 0.18 t-1.93 -0.12 l-3.14 -7.16 q-0.56 -1.22 -1.14 -2.82 l-0.06 0.02 q0.24 2.92 0.24 5.98 l0 3.98 q-0.62 0.12 -1.5 0.12 t-1.48 -0.12 l0 -13.6 q0.76 -0.18 1.83 -0.18 t1.91 0.12 l3.1 7.14 q0.84 1.98 1.24 3.04 l0.08 -0.04 q-0.24 -2.78 -0.24 -5.9 l0 -2.44 q0 -1.04 0.42 -1.49 t1.36 -0.45 l1.06 0 z M49.5 9.06 l0.02 1.56 l0 1.26 l4.28 0 q0.16 0.6 0.16 1.31 t-0.16 1.31 l-4.28 0 l0 5.5 q-0.64 0.12 -1.6 0.12 t-1.6 -0.12 l0 -13.54 l0.14 -0.12 l8.56 0 q0.12 0.5 0.12 1.25 t-0.41 1.11 t-1.29 0.36 l-3.94 0 z M59.8 16.28 q0.54 1.56 2.18 1.56 q0.82 0 1.33 -0.41 t0.8 -1.04 t0.39 -1.41 t0.1 -1.54 q0 -0.7 -0.05 -1.56 t-0.29 -1.61 t-0.76 -1.26 t-1.52 -0.51 q-0.96 0 -1.47 0.49 t-0.76 1.21 t-0.31 1.53 t-0.06 1.43 q0 0.92 0.09 1.64 t0.33 1.48 z M58.18 19.04 q-2.14 -1.78 -2.14 -5.86 q0 -1.76 0.41 -3.09 t1.18 -2.23 t1.87 -1.36 t2.48 -0.46 t2.49 0.46 t1.88 1.37 t1.18 2.24 t0.41 3.07 t-0.41 3.07 t-1.18 2.23 t-1.88 1.36 t-2.49 0.46 q-2.28 0 -3.8 -1.26 z"/></g>
			</g>
		</svg>
	